#!OML:ASF E:\emotionWalksFemale\Project 1\Capture day 1\Session 1\Female1.ASF
:FULLY-SPECIFIED
:DEGREES
414
root 8.68179 15.3532 35.7779 177.327 -9.34094 181.661
lowerback 0.683396 -1.3194 4.3622
upperback -4.34673 -1.81759 3.72454
thorax -4.8918 -1.14045 1.52127
lowerneck -5.5353 -1.56989 -3.77143
upperneck 24.609 -3.16242 -1.92211
head 8.58651 -2.78442 -0.403105
rclavicle 5.56597e-015 -1.43125e-014
rhumerus -48.6121 1.65711 -68.4877
rradius 39.0116
rwrist 9.42226
rhand -7.37961 -50.194
rfingers 7.12502
rthumb -161.494 -259.334
lclavicle 5.56597e-015 -1.43125e-014
lhumerus -65.4296 5.48027 77.0636
lradius 35.8807
lwrist -21.1791
lhand 5.9923 -28.278
lfingers 7.12502
lthumb 31.316 -0.937256
rfemur 0.673841 19.7735 31.0514
rtibia 16.8391
rfoot -21.323 -35.6072
rtoes 28.9873
lfemur -1.52516 -1.3225 -13.0781
ltibia 54.2339
lfoot 10.4624 -6.20228
ltoes -16.9029
415
root 8.70665 15.346 35.7306 177.036 -9.66785 181.968
lowerback 0.799672 -1.31624 4.49025
upperback -4.33238 -1.8115 3.98012
thorax -4.93967 -1.14552 1.72007
lowerneck -5.16861 -1.6286 -4.02959
upperneck 24.6246 -3.27167 -1.92095
head 8.53102 -2.87467 -0.364289
rclavicle -1.63003e-014 -1.90833e-014
rhumerus -48.0228 1.69131 -68.0712
rradius 38.1992
rwrist 10.1239
rhand -7.41681 -50.4896
rfingers 7.12502
rthumb -161.53 -259.633
lclavicle -1.63003e-014 -1.90833e-014
lhumerus -64.8534 6.3808 76.4336
lradius 35.6499
lwrist -21.5523
lhand 5.90468 -28.5089
lfingers 7.12502
lthumb 31.2325 -1.15197
rfemur 1.51155 19.8867 31.7373
rtibia 16.1047
rfoot -21.0953 -36.1802
rtoes 28.322
lfemur -2.48535 -1.51981 -12.6328
ltibia 55.9758
lfoot 11.0099 -6.11284
ltoes -18.4918
416
root 8.72868 15.3368 35.6839 176.742 -9.99537 182.298
lowerback 0.944153 -1.25358 4.75511
upperback -4.29976 -1.71669 4.1447
thorax -4.99152 -1.11138 1.74393
lowerneck -4.98522 -1.75041 -4.20073
upperneck 24.7709 -3.46968 -1.93173
head 8.55374 -3.00174 -0.357874
rclavicle -2.04748e-014 2.38542e-014
rhumerus -47.2939 1.21913 -67.5497
rradius 37.1741
rwrist 11.0621
rhand -7.31026 -50.3457
rfingers 7.12502
rthumb -161.428 -259.479
lclavicle -2.04748e-014 2.38542e-014
lhumerus -64.397 7.11716 75.7367
lradius 35.6455
lwrist -22.1528
lhand 5.52335 -28.6187
lfingers 7.12502
lthumb 30.869 -1.19232
rfemur 2.29028 19.7533 32.3949
rtibia 15.4523
rfoot -20.9822 -36.4195
rtoes 28.5457
lfemur -3.41726 -1.75145 -12.1658
ltibia 57.656
lfoot 11.3 -5.90512
ltoes -19.6311
417
root 8.74718 15.3224 35.6414 176.293 -10.3754 182.602
lowerback 1.19254 -1.18044 5.11289
upperback -4.20487 -1.58962 4.20322
thorax -5.04272 -1.06117 1.60474
lowerneck -4.95503 -1.87868 -4.24838
upperneck 25.0809 -3.68833 -1.96135
head 8.6586 -3.13501 -0.387374
rclavicle 2.80286e-014 3.02153e-014
rhumerus -46.5784 0.635446 -67.1487
rradius 36.1372
rwrist 11.9785
rhand -7.32765 -49.6972
rfingers 7.12502
rthumb -161.444 -258.832
lclavicle 2.80286e-014 3.02153e-014
lhumerus -63.8658 7.62214 75.1911
lradius 35.8285
lwrist -22.284
lhand 3.96952 -28.5292
lfingers 7.12502
lthumb 29.3866 -0.832593
rfemur 3.13935 19.6624 33.0645
rtibia 14.9638
rfoot -21.0885 -36.7196
rtoes 29.4955
lfemur -4.20854 -1.94052 -11.7087
ltibia 59.263
lfoot 10.9784 -5.76017
ltoes -21.2893
418
root 8.76503 15.316 35.6011 176.014 -10.8369 182.691
lowerback 1.32128 -1.1514 5.26148
upperback -4.20013 -1.53387 4.21196
thorax -5.11523 -1.03989 1.53254
lowerneck -4.85547 -2.07832 -4.32828
upperneck 25.3496 -4.02064 -1.9619
head 8.73979 -3.32238 -0.410127
rclavicle -4.77083e-015 -7.95139e-015
rhumerus -46.1207 0.401402 -66.9297
rradius 35.456
rwrist 12.7093
rhand -7.52209 -49.1501
rfingers 7.12502
rthumb -161.631 -258.303
lclavicle -4.77083e-015 -7.95139e-015
lhumerus -63.3799 8.00974 74.8838
lradius 36.0928
lwrist -21.9243
lhand 4.57082 -28.6869
lfingers 7.12502
lthumb 29.9605 -1.09251
rfemur 3.69941 19.4108 33.4072
rtibia 14.6842
rfoot -21.0968 -36.9843
rtoes 29.7653
lfemur -5.16581 -2.17731 -11.5852
ltibia 60.7523
lfoot 10.2858 -5.43337
ltoes -23.4276
419
root 8.78306 15.314 35.559 175.862 -11.3026 182.547
lowerback 1.38209 -1.13093 5.19691
upperback -4.18149 -1.49584 4.13538
thorax -5.13002 -1.01495 1.4872
lowerneck -4.96362 -2.23907 -4.31852
upperneck 25.7127 -4.27248 -2.04556
head 8.88781 -3.47099 -0.47619
rclavicle 2.10712e-014 -4.29375e-014
rhumerus -45.6364 0.0817377 -66.7826
rradius 34.8999
rwrist 13.4491
rhand -7.90799 -49.7782
rfingers 7.12502
rthumb -162.003 -258.966
lclavicle 2.10712e-014 -4.29375e-014
lhumerus -62.7537 8.26055 74.7243
lradius 36.4305
lwrist -21.3009
lhand 2.83017 -29.2579
lfingers 7.12502
lthumb 28.2983 -1.37565
rfemur 4.08279 18.8574 33.4151
rtibia 14.5837
rfoot -21.1402 -36.9758
rtoes 29.8752
lfemur -6.17129 -2.48076 -11.8166
ltibia 62.1276
lfoot 9.21313 -4.71638
ltoes -23.8025
